<?xml version="1.0" standalone="yes"?>
<svg xmlns="http://www.w3.org/2000/svg" viewBox="478 189 692 351.5"><g><g></g><g><g style="visibility: visible;"><rect x="769" y="280" width="110" height="40" rx="7.5" ry="7.5" fill="#cfd8dc" stroke="black" stroke-width="2" pointer-events="all"></rect></g><g style="visibility: hidden;"></g><g style=""><g fill="#444444" font-family="Helvetica,Arial,sans-serif" font-style="italic" text-anchor="middle" font-size="13px"><text x="824" y="297.5">DE:</text></g></g><g style="visibility: hidden;"></g><g style=""><g fill="#444444" font-family="Helvetica,Arial,sans-serif" text-anchor="middle" font-size="13px"><text x="824" y="312.5">GNC Functions</text></g></g><g style="visibility: visible;"><rect x="499" y="440" width="90" height="40" rx="7.5" ry="7.5" fill="#cfd8dc" stroke="black" stroke-width="2" pointer-events="all"></rect></g><g style="visibility: hidden;"></g><g style=""><g fill="#444444" font-family="Helvetica,Arial,sans-serif" font-style="italic" text-anchor="middle" font-size="13px"><text x="544" y="457.5">COMP:</text></g></g><g style="visibility: hidden;"></g><g style=""><g fill="#444444" font-family="Helvetica,Arial,sans-serif" text-anchor="middle" font-size="13px"><text x="544" y="472.5">Sensor</text></g></g><g style="visibility: visible;"><rect x="769" y="190" width="110" height="40" fill="white" stroke="black" stroke-width="2" pointer-events="all"></rect></g><g style="visibility: hidden;"></g><g style=""><g fill="#444444" font-family="Helvetica,Arial,sans-serif" font-style="italic" text-anchor="middle" font-size="13px"><text x="824" y="207.5">FUN:</text></g></g><g style="visibility: hidden;"></g><g style=""><g fill="#444444" font-family="Helvetica,Arial,sans-serif" text-anchor="middle" font-size="13px"><text x="824" y="222.5">Provide GNC</text></g></g><g style="visibility: visible;"><rect x="769" y="360" width="110" height="40" rx="7.5" ry="7.5" fill="white" stroke="black" stroke-width="2" pointer-events="all"></rect></g><g style="visibility: hidden;"></g><g style=""><g fill="#444444" font-family="Helvetica,Arial,sans-serif" font-style="italic" text-anchor="middle" font-size="13px"><text x="824" y="377.5">FUN:</text></g></g><g style="visibility: hidden;"></g><g style=""><g fill="#444444" font-family="Helvetica,Arial,sans-serif" text-anchor="middle" font-size="13px"><text x="824" y="392.5">Determine Action</text></g></g><g style="visibility: visible; cursor: move;"><rect x="964" y="190" width="95" height="40" rx="7.5" ry="7.5" fill="#e1f5fe" stroke="black" stroke-width="2" pointer-events="all"></rect></g><g style="visibility: hidden;"></g><g style=""><g fill="#444444" font-family="Arial,Helvetica" font-style="italic" text-anchor="middle" font-size="13px"><text x="1011.5" y="207.5">QOI [OBJ]:</text></g></g><g style="visibility: hidden;"></g><g style=""><g fill="#444444" font-family="Arial,Helvetica" text-anchor="middle" font-size="13px"><text x="1011.5" y="222.5">Mass ↓ kg</text></g></g><g style="visibility: visible;"><rect x="479" y="360" width="130" height="40" rx="7.5" ry="7.5" fill="white" stroke="black" stroke-width="2" pointer-events="all"></rect></g><g style="visibility: hidden;"></g><g style=""><g fill="#444444" font-family="Helvetica,Arial,sans-serif" font-style="italic" text-anchor="middle" font-size="13px"><text x="544" y="377.5">FUN:</text></g></g><g style="visibility: hidden;"></g><g style=""><g fill="#444444" font-family="Helvetica,Arial,sans-serif" text-anchor="middle" font-size="13px"><text x="544" y="392.5">Sense Orientation</text></g></g><g style="visibility: visible;"><rect x="964" y="240" width="95" height="40" rx="7.5" ry="7.5" fill="#e1f5fe" stroke="black" stroke-width="2" pointer-events="all"></rect></g><g style="visibility: hidden;"></g><g style=""><g fill="#444444" font-family="Arial,Helvetica" font-style="italic" text-anchor="middle" font-size="13px"><text x="1011.5" y="257.5">QOI [OBJ]:</text></g></g><g style="visibility: hidden;"></g><g style=""><g fill="#444444" font-family="Arial,Helvetica" text-anchor="middle" font-size="13px"><text x="1011.5" y="272.5">Failure Rate ↓</text></g></g><g style="visibility: visible;"><rect x="1039" y="360" width="130" height="40" rx="7.5" ry="7.5" fill="white" stroke="black" stroke-width="2" pointer-events="all"></rect></g><g style="visibility: hidden;"></g><g style=""><g fill="#444444" font-family="Helvetica,Arial,sans-serif" font-style="italic" text-anchor="middle" font-size="13px"><text x="1104" y="377.5">FUN:</text></g></g><g style="visibility: hidden;"></g><g style=""><g fill="#444444" font-family="Helvetica,Arial,sans-serif" text-anchor="middle" font-size="13px"><text x="1104" y="392.5">Control Orientation</text></g></g><g style="visibility: visible;"><rect x="779" y="440" width="90" height="40" rx="7.5" ry="7.5" fill="#cfd8dc" stroke="black" stroke-width="2" pointer-events="all"></rect></g><g style="visibility: hidden;"></g><g style=""><g fill="#444444" font-family="Helvetica,Arial,sans-serif" font-style="italic" text-anchor="middle" font-size="13px"><text x="824" y="457.5">COMP:</text></g></g><g style="visibility: hidden;"></g><g style=""><g fill="#444444" font-family="Helvetica,Arial,sans-serif" text-anchor="middle" font-size="13px"><text x="824" y="472.5">Computer</text></g></g><g style="visibility: visible;"><rect x="1059" y="440" width="90" height="40" rx="7.5" ry="7.5" fill="#cfd8dc" stroke="black" stroke-width="2" pointer-events="all"></rect></g><g style="visibility: hidden;"></g><g style=""><g fill="#444444" font-family="Helvetica,Arial,sans-serif" font-style="italic" text-anchor="middle" font-size="13px"><text x="1104" y="457.5">COMP:</text></g></g><g style="visibility: hidden;"></g><g style=""><g fill="#444444" font-family="Helvetica,Arial,sans-serif" text-anchor="middle" font-size="13px"><text x="1104" y="472.5">Actuator</text></g></g><g style="visibility: visible;" transform="translate(0.5,0.5)"><path d="M 661.5 500 L 706.5 500 L 729 520 L 706.5 540 L 661.5 540 L 639 520 Z" fill="white" stroke="black" stroke-miterlimit="10" pointer-events="all"></path></g><g style="visibility: hidden;"></g><g style=""><g fill="#444444" font-family="Helvetica,Arial,sans-serif" font-style="italic" text-anchor="middle" font-size="13px"><text x="684" y="517.5">PORT:</text></g></g><g style="visibility: hidden;"></g><g style=""><g fill="#444444" font-family="Helvetica,Arial,sans-serif" text-anchor="middle" font-size="13px"><text x="684" y="532.5">Data</text></g></g><g style="visibility: visible;" transform="translate(0.5,0.5)"><path d="M 941.5 500 L 986.5 500 L 1009 520 L 986.5 540 L 941.5 540 L 919 520 Z" fill="white" stroke="black" stroke-miterlimit="10" pointer-events="all"></path></g><g style="visibility: hidden;"></g><g style=""><g fill="#444444" font-family="Helvetica,Arial,sans-serif" font-style="italic" text-anchor="middle" font-size="13px"><text x="964" y="517.5">PORT:</text></g></g><g style="visibility: hidden;"></g><g style=""><g fill="#444444" font-family="Helvetica,Arial,sans-serif" text-anchor="middle" font-size="13px"><text x="964" y="532.5">Command</text></g></g><g style="visibility: visible;"><path d="M 885 210 L 958 210" fill="none" stroke="white" stroke-width="6" stroke-miterlimit="10" pointer-events="stroke"></path></g><g style="visibility: visible;" transform="translate(0.5,0.5)"><path d="M 894.99 210 L 961.76 210" fill="none" stroke="black" stroke-miterlimit="10" pointer-events="stroke"></path><path d="M 879.99 210 L 887.49 205.59 L 894.99 210 L 887.49 214.41 Z" fill="black" stroke="black" stroke-miterlimit="10" pointer-events="all"></path><path d="M 955.88 213.5 L 962.88 210 L 955.88 206.5" fill="none" stroke="black" stroke-miterlimit="10" pointer-events="all"></path></g><g style="visibility: visible;"><path d="M 885 226.27 L 958 245.73" fill="none" stroke="white" stroke-width="6" stroke-miterlimit="10" pointer-events="stroke"></path></g><g style="visibility: visible;" transform="translate(0.5,0.5)"><path d="M 894.45 228.79 L 961.84 246.76" fill="none" stroke="black" stroke-miterlimit="10" pointer-events="stroke"></path><path d="M 879.95 224.92 L 888.34 222.59 L 894.45 228.79 L 886.06 231.12 Z" fill="black" stroke="black" stroke-miterlimit="10" pointer-events="all"></path><path d="M 955.25 248.62 L 962.92 247.05 L 957.06 241.86" fill="none" stroke="black" stroke-miterlimit="10" pointer-events="all"></path></g><g style="visibility: visible;"><path d="M 544 406 L 544 434" fill="none" stroke="white" stroke-width="6" stroke-miterlimit="10" pointer-events="stroke"></path></g><g style="visibility: visible;" transform="translate(0.5,0.5)"><path d="M 544 400 L 544 433.63" fill="none" stroke="black" stroke-miterlimit="10" pointer-events="stroke"></path><path d="M 544 438.88 L 540.5 431.88 L 544 433.63 L 547.5 431.88 Z" fill="black" stroke="black" stroke-miterlimit="10" pointer-events="all"></path></g><g style=""><g fill="#999999" font-family="Arial,Helvetica" text-anchor="middle" font-size="8px"><rect fill="white" stroke="none" x="525" y="414" width="38" height="9" stroke-width="0"></rect><text x="544" y="422">fulfilled by</text></g></g><g style="visibility: visible;"><path d="M 824 406 L 824 434" fill="none" stroke="white" stroke-width="6" stroke-miterlimit="10" pointer-events="stroke"></path></g><g style="visibility: visible;" transform="translate(0.5,0.5)"><path d="M 824 400 L 824 433.63" fill="none" stroke="black" stroke-miterlimit="10" pointer-events="stroke"></path><path d="M 824 438.88 L 820.5 431.88 L 824 433.63 L 827.5 431.88 Z" fill="black" stroke="black" stroke-miterlimit="10" pointer-events="all"></path></g><g style=""><g fill="#999999" font-family="Arial,Helvetica" text-anchor="middle" font-size="8px"><rect fill="white" stroke="none" x="805" y="414" width="38" height="9" stroke-width="0"></rect><text x="824" y="422">fulfilled by</text></g></g><g style="visibility: visible;"><path d="M 1104 406 L 1104 434" fill="none" stroke="white" stroke-width="6" stroke-miterlimit="10" pointer-events="stroke"></path></g><g style="visibility: visible;" transform="translate(0.5,0.5)"><path d="M 1104 400 L 1104 433.63" fill="none" stroke="black" stroke-miterlimit="10" pointer-events="stroke"></path><path d="M 1104 438.88 L 1100.5 431.88 L 1104 433.63 L 1107.5 431.88 Z" fill="black" stroke="black" stroke-miterlimit="10" pointer-events="all"></path></g><g style=""><g fill="#999999" font-family="Arial,Helvetica" text-anchor="middle" font-size="8px"><rect fill="white" stroke="none" x="1085" y="414" width="38" height="9" stroke-width="0"></rect><text x="1104" y="422">fulfilled by</text></g></g><g style="visibility: visible;"><path d="M 824 236 L 824 274" fill="none" stroke="white" stroke-width="6" stroke-miterlimit="10" pointer-events="stroke"></path></g><g style="visibility: visible;" transform="translate(0.5,0.5)"><path d="M 824 230 L 824 273.63" fill="none" stroke="black" stroke-miterlimit="10" pointer-events="stroke"></path><path d="M 824 278.88 L 820.5 271.88 L 824 273.63 L 827.5 271.88 Z" fill="black" stroke="black" stroke-miterlimit="10" pointer-events="all"></path></g><g style=""><g fill="#999999" font-family="Arial,Helvetica" text-anchor="middle" font-size="8px"><rect fill="white" stroke="none" x="798" y="249" width="52" height="9" stroke-width="0"></rect><text x="824" y="257">emerges from</text></g></g><g style="visibility: visible;"><path d="M 763 317.43 L 615 359.71" fill="none" stroke="white" stroke-width="6" stroke-miterlimit="10" pointer-events="stroke"></path></g><g style="visibility: visible;" transform="translate(0.5,0.5)"><path d="M 769 315.71 L 615.12 359.68" fill="none" stroke="black" stroke-miterlimit="10" pointer-events="stroke"></path><path d="M 610.07 361.12 L 615.84 355.83 L 615.12 359.68 L 617.77 362.56 Z" fill="black" stroke="black" stroke-miterlimit="10" pointer-events="all"></path></g><g style=""><g fill="#999999" font-family="Arial,Helvetica" text-anchor="middle" font-size="8px"><rect fill="white" stroke="none" x="668" y="333" width="41" height="9" stroke-width="0"></rect><text x="689.19" y="340.52">zooms into</text></g></g><g style="visibility: visible;"><path d="M 824 326 L 824 354" fill="none" stroke="white" stroke-width="6" stroke-miterlimit="10" pointer-events="stroke"></path></g><g style="visibility: visible;" transform="translate(0.5,0.5)"><path d="M 824 320 L 824 353.63" fill="none" stroke="black" stroke-miterlimit="10" pointer-events="stroke"></path><path d="M 824 358.88 L 820.5 351.88 L 824 353.63 L 827.5 351.88 Z" fill="black" stroke="black" stroke-miterlimit="10" pointer-events="all"></path></g><g style=""><g fill="#999999" font-family="Arial,Helvetica" text-anchor="middle" font-size="8px"><rect fill="white" stroke="none" x="803" y="334" width="41" height="9" stroke-width="0"></rect><text x="824" y="342">zooms into</text></g></g><g style="visibility: visible;"><path d="M 885 317.43 L 1033 359.71" fill="none" stroke="white" stroke-width="6" stroke-miterlimit="10" pointer-events="stroke"></path></g><g style="visibility: visible;" transform="translate(0.5,0.5)"><path d="M 879 315.71 L 1032.88 359.68" fill="none" stroke="black" stroke-miterlimit="10" pointer-events="stroke"></path><path d="M 1037.93 361.12 L 1030.23 362.56 L 1032.88 359.68 L 1032.16 355.83 Z" fill="black" stroke="black" stroke-miterlimit="10" pointer-events="all"></path></g><g style=""><g fill="#999999" font-family="Arial,Helvetica" text-anchor="middle" font-size="8px"><rect fill="white" stroke="none" x="938" y="333" width="41" height="9" stroke-width="0"></rect><text x="958.81" y="340.52">zooms into</text></g></g><g style="visibility: visible;"><path d="M 595 481.86 L 648.26 504.68" fill="none" stroke="white" stroke-width="6" stroke-miterlimit="10" pointer-events="stroke"></path></g><g style="visibility: visible;" transform="translate(0.5,0.5)"><path d="M 589 479.29 L 647.94 504.54" fill="none" stroke="#3454d1" stroke-miterlimit="10" stroke-dasharray="3 3" pointer-events="stroke"></path><path d="M 652.76 506.61 L 644.95 507.07 L 647.94 504.54 L 647.71 500.64 Z" fill="#3454d1" stroke="#3454d1" stroke-miterlimit="10" pointer-events="all"></path></g><g style=""><g fill="#3454d1" font-family="Arial,Helvetica" text-anchor="middle" font-size="8px"><rect fill="white" stroke="none" x="602" y="487" width="38" height="9" stroke-width="0"></rect><text x="621.17" y="495.07">outputs to</text></g></g><g style="visibility: visible;"><path d="M 719.74 504.68 L 773 481.86" fill="none" stroke="white" stroke-width="6" stroke-miterlimit="10" pointer-events="stroke"></path></g><g style="visibility: visible;" transform="translate(0.5,0.5)"><path d="M 714.21 507.05 L 773.15 481.79" fill="none" stroke="#3454d1" stroke-miterlimit="10" stroke-dasharray="3 3" pointer-events="stroke"></path><path d="M 777.97 479.73 L 772.92 485.7 L 773.15 481.79 L 770.16 479.27 Z" fill="#3454d1" stroke="#3454d1" stroke-miterlimit="10" pointer-events="all"></path></g><g style=""><g fill="#3454d1" font-family="Arial,Helvetica" text-anchor="middle" font-size="8px"><rect fill="white" stroke="none" x="732" y="488" width="29" height="9" stroke-width="0"></rect><text x="746.38" y="495.27">to input</text></g></g><g style="visibility: visible;"><path d="M 875 481.86 L 928.26 504.68" fill="none" stroke="white" stroke-width="6" stroke-miterlimit="10" pointer-events="stroke"></path></g><g style="visibility: visible;" transform="translate(0.5,0.5)"><path d="M 869 479.29 L 927.94 504.54" fill="none" stroke="#3454d1" stroke-miterlimit="10" stroke-dasharray="3 3" pointer-events="stroke"></path><path d="M 932.76 506.61 L 924.95 507.07 L 927.94 504.54 L 927.71 500.64 Z" fill="#3454d1" stroke="#3454d1" stroke-miterlimit="10" pointer-events="all"></path></g><g style=""><g fill="#3454d1" font-family="Arial,Helvetica" text-anchor="middle" font-size="8px"><rect fill="white" stroke="none" x="882" y="487" width="38" height="9" stroke-width="0"></rect><text x="901.17" y="495.07">outputs to</text></g></g><g style="visibility: visible;"><path d="M 999.74 504.68 L 1053 481.86" fill="none" stroke="white" stroke-width="6" stroke-miterlimit="10" pointer-events="stroke"></path></g><g style="visibility: visible;" transform="translate(0.5,0.5)"><path d="M 994.21 507.05 L 1053.15 481.79" fill="none" stroke="#3454d1" stroke-miterlimit="10" stroke-dasharray="3 3" pointer-events="stroke"></path><path d="M 1057.97 479.73 L 1052.92 485.7 L 1053.15 481.79 L 1050.16 479.27 Z" fill="#3454d1" stroke="#3454d1" stroke-miterlimit="10" pointer-events="all"></path></g><g style=""><g fill="#3454d1" font-family="Arial,Helvetica" text-anchor="middle" font-size="8px"><rect fill="white" stroke="none" x="1012" y="488" width="29" height="9" stroke-width="0"></rect><text x="1026.38" y="495.27">to input</text></g></g></g><g></g><g></g></g></svg>